# xmcd CD database file
#
# Track frame offsets:
#	183
#	15873
#	27868
#	41338
#	53270
#	67848
#	80825
#	94128
#	107735
#	119895
#	133488
#
# Disc length: 1977 seconds
#
# Revision: 1
# Processed by: cddbd v1.5.1PL0 Copyright (c) Steve Scherf et al.
# Submitted via: CDex 1.51
#
DISCID=8a07b70b
DTITLE=Clinton Gregory - Master Of Illusion
DYEAR=1993
DGENRE=Country
TTITLE0=If I Were A Painting
TTITLE1=Standing On The Edge Of Love
TTITLE2=Master Of Illusion
TTITLE3=The Day The Boys Leave The Girls Alone
TTITLE4=In The Arms Of Love
TTITLE5=Somewhere Beyond Nowhere
TTITLE6=Surrender
TTITLE7=Rockin' The Country
TTITLE8=Watermelon Time In Georgia
TTITLE9=Ladies Choice
TTITLE10=Wish You Were Here
EXTD=YEAR: 1993
EXTT0=
EXTT1=
EXTT2=
EXTT3=
EXTT4=
EXTT5=
EXTT6=
EXTT7=
EXTT8=
EXTT9=
EXTT10=
PLAYORDER=
